# xmcd
#
# Track frame offsets:
#	150
#	17192
#	35332
#	61125
#	83042
#	104165
#	118850
#	141690
#	162002
#	186227
#	203992
#	226330
#	244902
#	263117
#	284655
#	295195
#
# Disc length: 4159 seconds
#
# Revision: 0
# Processed by: cddbd v1.5.2PL0 Copyright (c) Steve Scherf et al.
# Submitted via: EZCDAudioConverter 4.0.1.1
#
DISCID=f6103d10
DTITLE=Various Artist - Word On Line
DYEAR=1995
DGENRE=Various
TTITLE0=Church Of Rhythm - Free
TTITLE1=Scott Blackwell - X Factor
TTITLE2=Synergy - You Are The Rhythm Of Life
TTITLE3=Out Of Eden - Lovely Day
TTITLE4=Anointed - It's A Matter Of Time
TTITLE5=Yolanda Adams - Fly Like An Eagle
TTITLE6=Christafari - Wha - Give A Little Love
TTITLE7=GRITS - Screen Door
TTITLE8=Michael W. Smith - Cry For Love
TTITLE9=Helen Jayne - Better Way Ahead
TTITLE10=Clay Crosse - Just Like He Said He Would
TTITLE11=Amy Morris - I'm A Believer
TTITLE12=Johnny Q Public - Preacher's Kid
TTITLE13=Three Crosses - This Is Not My Home
TTITLE14=The Electrics - The Whole Shebang
TTITLE15=Bride - Only Hurts When I Laugh
EXTD=
EXTT0=
EXTT1=
EXTT2=
EXTT3=
EXTT4=
EXTT5=
EXTT6=
EXTT7=
EXTT8=
EXTT9=
EXTT10=
EXTT11=
EXTT12=
EXTT13=
EXTT14=
EXTT15=
PLAYORDER=
